<svg xmlns="http://www.w3.org/2000/svg" version="1.1" xmlns:xlink="http://www.w3.org/1999/xlink" xmlns:svgjs="http://svgjs.com/svgjs" width="1440" height="560" preserveAspectRatio="none" viewBox="0 0 1440 560"><g mask="url(&quot;#SvgjsMask1306&quot;)" fill="none"><rect width="1440" height="560" x="0" y="0" fill="url(#SvgjsLinearGradient1307)"></rect><path d="M1440 0L1096.35 0L1440 75.11z" fill="rgba(255, 255, 255, .1)"></path><path d="M1096.35 0L1440 75.11L1440 172.44L1022.06 0z" fill="rgba(255, 255, 255, .075)"></path><path d="M1022.06 0L1440 172.44L1440 179.37L417.15999999999997 0z" fill="rgba(255, 255, 255, .05)"></path><path d="M417.1600000000001 0L1440 179.37L1440 300.94L180.48000000000008 0z" fill="rgba(255, 255, 255, .025)"></path><path d="M0 560L348.28 560L0 389.57z" fill="rgba(0, 0, 0, .1)"></path><path d="M0 389.57L348.28 560L725.88 560L0 257.03z" fill="rgba(0, 0, 0, .075)"></path><path d="M0 257.03L725.88 560L839.45 560L0 185.61999999999998z" fill="rgba(0, 0, 0, .05)"></path><path d="M0 185.62L839.45 560L1155.9 560L0 90.99000000000001z" fill="rgba(0, 0, 0, .025)"></path></g><defs><mask id="SvgjsMask1306"><rect width="1440" height="560" fill="#ffffff"></rect></mask><linearGradient x1="15.28%" y1="139.29%" x2="84.72%" y2="-39.29%" gradientUnits="userSpaceOnUse" id="SvgjsLinearGradient1307"><stop stop-color="#0e2a47" offset="0"></stop><stop stop-color="rgba(6, 6, 6, 1)" offset="0"></stop><stop stop-color="rgba(6, 6, 6, 1)" offset="1"></stop><stop stop-color="rgba(6, 6, 6, 1)" offset="1"></stop></linearGradient></defs></svg>